<!DOCTYPE svg PUBLIC "-//W3C//DTD SVG 1.1//EN" "http://www.w3.org/Graphics/SVG/1.1/DTD/svg11.dtd">
<!-- Uploaded to: SVG Repo, www.svgrepo.com, Transformed by: SVG Repo Mixer Tools -->
<svg fill="#e8c854" version="1.1" id="Layer_1" xmlns="http://www.w3.org/2000/svg" xmlns:xlink="http://www.w3.org/1999/xlink" viewBox="0 0 503.895 503.895" xml:space="preserve" width="800px" height="800px" stroke="#e8c854">
<g id="SVGRepo_bgCarrier" stroke-width="0"/>
<g id="SVGRepo_tracerCarrier" stroke-linecap="round" stroke-linejoin="round"/>
<g id="SVGRepo_iconCarrier"> <g> <g> <g> <rect x="50.329" y="184.798" width="134.295" height="67.148"/> <path d="M222.126,157.11c-1.695-7.336-6.06-13.388-11.877-17.408v-30.443c0-13.883-11.298-25.18-25.18-25.18 c-13.891,0-25.18,11.298-25.18,25.18v25.18h-8.393v-25.18c0-13.883-11.298-25.18-25.18-25.18c-13.891,0-25.18,11.298-25.18,25.18 v25.18h-8.838V25.106c0-13.765-11.197-24.962-24.962-24.962c-13.757,0-24.954,11.197-24.954,24.962v109.333h-0.688 c-13.715,0-25.441,9.325-28.521,22.679l-7.856,34.052c-6.849,29.688-7.084,61.121-0.671,90.909 c6.186,28.748,9.485,51.024,10.693,72.234l1.36,23.535v58.343c0,37.258,30.309,67.559,67.559,67.559h66.795 c37.25,0,67.559-30.3,67.559-67.559l-0.008-57.864l1.368-24.014c1.209-21.244,4.516-43.52,10.693-72.234 c6.413-29.788,6.178-61.222-0.672-90.909L222.126,157.11z M176.675,109.259c0-4.633,3.76-8.393,8.393-8.393 c4.625,0,8.393,3.76,8.393,8.393v25.18h-16.787V109.259z M117.921,109.259c0-4.633,3.76-8.393,8.393-8.393 c4.625,0,8.393,3.76,8.393,8.393v25.18h-16.787V109.259z M59.167,25.106c0-4.507,3.668-8.175,8.167-8.175 c4.507,0,8.175,3.668,8.175,8.175v109.333H59.167V25.106z M33.542,293.915c0-4.642,3.76-8.393,8.393-8.393h25.18 c4.633,0,8.393,3.752,8.393,8.393c0,4.642-3.76,8.393-8.393,8.393h-25.18C37.302,302.308,33.542,298.556,33.542,293.915z M83.902,453.39H67.116c-4.633,0-8.393-3.752-8.393-8.393c0-4.642,3.76-8.393,8.393-8.393h16.787 c4.633,0,8.393,3.752,8.393,8.393C92.296,449.638,88.536,453.39,83.902,453.39z M83.902,419.816H67.116 c-4.633,0-8.393-3.752-8.393-8.393c0-4.642,3.76-8.393,8.393-8.393h16.787c4.633,0,8.393,3.752,8.393,8.393 C92.296,416.065,88.536,419.816,83.902,419.816z M83.902,386.243H67.116c-4.633,0-8.393-3.752-8.393-8.393 c0-4.642,3.76-8.393,8.393-8.393h16.787c4.633,0,8.393,3.752,8.393,8.393C92.296,382.491,88.536,386.243,83.902,386.243z M83.902,352.669H67.116c-4.633,0-8.393-3.752-8.393-8.393c0-4.642,3.76-8.393,8.393-8.393h16.787 c4.633,0,8.393,3.752,8.393,8.393C92.296,348.917,88.536,352.669,83.902,352.669z M125.87,453.39h-16.787 c-4.633,0-8.393-3.752-8.393-8.393c0-4.642,3.76-8.393,8.393-8.393h16.787c4.633,0,8.393,3.752,8.393,8.393 C134.263,449.638,130.503,453.39,125.87,453.39z M125.87,419.816h-16.787c-4.633,0-8.393-3.752-8.393-8.393 c0-4.642,3.76-8.393,8.393-8.393h16.787c4.633,0,8.393,3.752,8.393,8.393C134.263,416.065,130.503,419.816,125.87,419.816z M125.87,386.243h-16.787c-4.633,0-8.393-3.752-8.393-8.393c0-4.642,3.76-8.393,8.393-8.393h16.787 c4.633,0,8.393,3.752,8.393,8.393C134.263,382.491,130.503,386.243,125.87,386.243z M125.87,352.669h-16.787 c-4.633,0-8.393-3.752-8.393-8.393c0-4.642,3.76-8.393,8.393-8.393h16.787c4.633,0,8.393,3.752,8.393,8.393 C134.263,348.917,130.503,352.669,125.87,352.669z M167.837,453.39H151.05c-4.633,0-8.393-3.752-8.393-8.393 c0-4.642,3.76-8.393,8.393-8.393h16.787c4.633,0,8.393,3.752,8.393,8.393C176.23,449.638,172.47,453.39,167.837,453.39z M167.837,419.816H151.05c-4.633,0-8.393-3.752-8.393-8.393c0-4.642,3.76-8.393,8.393-8.393h16.787 c4.633,0,8.393,3.752,8.393,8.393C176.23,416.065,172.47,419.816,167.837,419.816z M167.837,386.243H151.05 c-4.633,0-8.393-3.752-8.393-8.393c0-4.642,3.76-8.393,8.393-8.393h16.787c4.633,0,8.393,3.752,8.393,8.393 C176.23,382.491,172.47,386.243,167.837,386.243z M167.837,352.669H151.05c-4.633,0-8.393-3.752-8.393-8.393 c0-4.642,3.76-8.393,8.393-8.393h16.787c4.633,0,8.393,3.752,8.393,8.393C176.23,348.917,172.47,352.669,167.837,352.669z M193.017,302.308H92.296c-4.633,0-8.393-3.752-8.393-8.393c0-4.642,3.76-8.393,8.393-8.393h100.721 c4.633,0,8.393,3.752,8.393,8.393C201.411,298.556,197.65,302.308,193.017,302.308z M201.411,260.341 c0,4.642-3.76,8.393-8.393,8.393H41.935c-4.633,0-8.393-3.752-8.393-8.393v-83.934c0-4.642,3.76-8.393,8.393-8.393h151.082 c4.633,0,8.393,3.752,8.393,8.393V260.341z"/> <rect x="318.919" y="184.798" width="134.295" height="67.148"/> <path d="M498.58,191.171l-7.865-34.061c-1.695-7.336-6.06-13.388-11.877-17.408v-30.443c0-13.883-11.298-25.18-25.18-25.18 c-13.891,0-25.18,11.298-25.18,25.18v25.18h-8.393v-25.18c0-13.883-11.298-25.18-25.18-25.18c-13.891,0-25.18,11.298-25.18,25.18 v25.18h-8.838V25.106c0-13.765-11.197-24.962-24.962-24.962c-13.757,0-24.954,11.197-24.954,24.962v109.333h-0.688 c-13.715,0-25.441,9.325-28.521,22.679l-7.856,34.052c-6.849,29.688-7.084,61.121-0.671,90.909 c6.186,28.748,9.485,51.024,10.693,72.234l1.36,23.535v58.343c0,37.258,30.309,67.559,67.559,67.559h66.795 c37.25,0,67.559-30.3,67.559-67.559l-0.008-57.864l1.368-24.014c1.209-21.244,4.516-43.52,10.693-72.234 C505.665,252.292,505.43,220.858,498.58,191.171z M445.265,109.259c0-4.633,3.76-8.393,8.393-8.393 c4.625,0,8.393,3.76,8.393,8.393v25.18h-16.787V109.259z M386.511,109.259c0-4.633,3.76-8.393,8.393-8.393 c4.625,0,8.393,3.76,8.393,8.393v25.18h-16.787V109.259z M327.757,25.106c0-4.507,3.668-8.175,8.167-8.175 c4.507,0,8.175,3.668,8.175,8.175v109.333h-16.342V25.106z M302.132,293.915c0-4.642,3.76-8.393,8.393-8.393h25.18 c4.633,0,8.393,3.752,8.393,8.393c0,4.642-3.76,8.393-8.393,8.393h-25.18C305.892,302.308,302.132,298.556,302.132,293.915z M352.493,453.39h-16.787c-4.633,0-8.393-3.752-8.393-8.393c0-4.642,3.76-8.393,8.393-8.393h16.787 c4.633,0,8.393,3.752,8.393,8.393C360.886,449.638,357.126,453.39,352.493,453.39z M352.493,419.816h-16.787 c-4.633,0-8.393-3.752-8.393-8.393c0-4.642,3.76-8.393,8.393-8.393h16.787c4.633,0,8.393,3.752,8.393,8.393 C360.886,416.065,357.126,419.816,352.493,419.816z M352.493,386.243h-16.787c-4.633,0-8.393-3.752-8.393-8.393 c0-4.642,3.76-8.393,8.393-8.393h16.787c4.633,0,8.393,3.752,8.393,8.393C360.886,382.491,357.126,386.243,352.493,386.243z M352.493,352.669h-16.787c-4.633,0-8.393-3.752-8.393-8.393c0-4.642,3.76-8.393,8.393-8.393h16.787 c4.633,0,8.393,3.752,8.393,8.393C360.886,348.917,357.126,352.669,352.493,352.669z M394.46,453.39h-16.787 c-4.633,0-8.393-3.752-8.393-8.393c0-4.642,3.76-8.393,8.393-8.393h16.787c4.633,0,8.393,3.752,8.393,8.393 C402.853,449.638,399.093,453.39,394.46,453.39z M394.46,419.816h-16.787c-4.633,0-8.393-3.752-8.393-8.393 c0-4.642,3.76-8.393,8.393-8.393h16.787c4.633,0,8.393,3.752,8.393,8.393C402.853,416.065,399.093,419.816,394.46,419.816z M394.46,386.243h-16.787c-4.633,0-8.393-3.752-8.393-8.393c0-4.642,3.76-8.393,8.393-8.393h16.787 c4.633,0,8.393,3.752,8.393,8.393C402.853,382.491,399.093,386.243,394.46,386.243z M394.46,352.669h-16.787 c-4.633,0-8.393-3.752-8.393-8.393c0-4.642,3.76-8.393,8.393-8.393h16.787c4.633,0,8.393,3.752,8.393,8.393 C402.853,348.917,399.093,352.669,394.46,352.669z M436.427,453.39H419.64c-4.633,0-8.393-3.752-8.393-8.393 c0-4.642,3.76-8.393,8.393-8.393h16.787c4.633,0,8.393,3.752,8.393,8.393C444.82,449.638,441.06,453.39,436.427,453.39z M436.427,419.816H419.64c-4.633,0-8.393-3.752-8.393-8.393c0-4.642,3.76-8.393,8.393-8.393h16.787 c4.633,0,8.393,3.752,8.393,8.393C444.82,416.065,441.06,419.816,436.427,419.816z M436.427,386.243H419.64 c-4.633,0-8.393-3.752-8.393-8.393c0-4.642,3.76-8.393,8.393-8.393h16.787c4.633,0,8.393,3.752,8.393,8.393 C444.82,382.491,441.06,386.243,436.427,386.243z M436.427,352.669H419.64c-4.633,0-8.393-3.752-8.393-8.393 c0-4.642,3.76-8.393,8.393-8.393h16.787c4.633,0,8.393,3.752,8.393,8.393C444.82,348.917,441.06,352.669,436.427,352.669z M461.607,302.308H360.886c-4.633,0-8.393-3.752-8.393-8.393c0-4.642,3.76-8.393,8.393-8.393h100.721 c4.633,0,8.393,3.752,8.393,8.393C470.001,298.556,466.241,302.308,461.607,302.308z M470.001,260.341 c0,4.642-3.76,8.393-8.393,8.393H310.525c-4.633,0-8.393-3.752-8.393-8.393v-83.934c0-4.642,3.76-8.393,8.393-8.393h151.082 c4.633,0,8.393,3.752,8.393,8.393V260.341z"/> </g> </g> </g> </g>
</svg>